<svg xmlns="http://www.w3.org/2000/svg" viewBox="0 0 96 96" width="96" height="96"><path transform="translate(14 18)" d="M3 0l32 0c1.65685 0 3 1.34315 3 3l0 26c0 1.65686-1.34315 3-3 3l-32 0c-1.65685 0-3-1.34314-3-3l0-26c0-1.65685 1.34315-3 3-3z" fill-rule="nonzero" fill="#ccdff4"/><path transform="translate(20 24)" d="M1 0l30 0c0.55228 0 1 0.44772 1 1l0 24c0 0.55228-0.44772 1-1 1l-30 0c-0.55228 0-1-0.44772-1-1l0-24c0-0.55228 0.44772-1 1-1z" fill-rule="nonzero" fill="#ecf5fb"/><path transform="translate(20 40.2594)" d="M0 9.8703l7.09-5.52c0.54165-0.42123 1.21133-0.64405 1.89737-0.63132 0.68604 0.01274 1.34699 0.26027 1.87263 0.70132l4.14 3.45 7.88-7.1c0.56958-0.51271 1.31377-0.78801 2.07989-0.76942 0.76612 0.0186 1.49608 0.32968 2.04011 0.86942l5 5 0 11c0 0.26522-0.10536 0.51957-0.29289 0.70711-0.18754 0.18754-0.44189 0.29289-0.70711 0.29289l-30 0c-0.26522 0-0.51957-0.10536-0.70711-0.29289-0.18754-0.18754-0.29289-0.44189-0.29289-0.70711l0-7z" fill-rule="nonzero" fill="#ccdff4"/><path transform="translate(44 30)" d="M6 3c0 1.65685-1.34315 3-3 3-1.65685 0-3-1.34315-3-3 0-1.65685 1.34315-3 3-3 1.65685 0 3 1.34315 3 3z" fill-rule="nonzero" fill="#ccdff4"/><path transform="translate(2 66)" d="M3 4l-2 0c-0.26522 0-0.51957-0.10536-0.70711-0.29289-0.18754-0.18754-0.29289-0.44189-0.29289-0.70711l0-2c0-0.26522 0.10536-0.51957 0.29289-0.70711 0.18754-0.18754 0.44189-0.29289 0.70711-0.29289 0.26522 0 0.51957 0.10536 0.70711 0.29289 0.18754 0.18754 0.29289 0.44189 0.29289 0.70711l0 1 1 0c0.26522 0 0.51957 0.10536 0.70711 0.29289 0.18754 0.18754 0.29289 0.44189 0.29289 0.70711 0 0.26522-0.10536 0.51957-0.29289 0.70711-0.18754 0.18754-0.44189 0.29289-0.70711 0.29289z" fill-rule="nonzero" fill="#dbeafb"/><path transform="translate(2 6)" d="M1 4c-0.26522 0-0.51957-0.10536-0.70711-0.29289-0.18754-0.18754-0.29289-0.44189-0.29289-0.70711l0-2c0-0.26522 0.10536-0.51957 0.29289-0.70711 0.18754-0.18754 0.44189-0.29289 0.70711-0.29289l2 0c0.26522 0 0.51957 0.10536 0.70711 0.29289 0.18754 0.18754 0.29289 0.44189 0.29289 0.70711 0 0.26522-0.10536 0.51957-0.29289 0.70711-0.18754 0.18754-0.44189 0.29289-0.70711 0.29289l-1 0 0 1c0 0.26522-0.10536 0.51957-0.29289 0.70711-0.18754 0.18754-0.44189 0.29289-0.70711 0.29289z" fill-rule="nonzero" fill="#dbeafb"/><path transform="translate(74 6)" d="M3 4c-0.26522 0-0.51957-0.10536-0.70711-0.29289-0.18754-0.18754-0.29289-0.44189-0.29289-0.70711l0-1-1 0c-0.26522 0-0.51957-0.10536-0.70711-0.29289-0.18754-0.18754-0.29289-0.44189-0.29289-0.70711 0-0.26522 0.10536-0.51957 0.29289-0.70711 0.18754-0.18754 0.44189-0.29289 0.70711-0.29289l2 0c0.26522 0 0.51957 0.10536 0.70711 0.29289 0.18754 0.18754 0.29289 0.44189 0.29289 0.70711l0 2c0 0.26522-0.10536 0.51957-0.29289 0.70711-0.18754 0.18754-0.44189 0.29289-0.70711 0.29289z" fill-rule="nonzero" fill="#dbeafb"/><path transform="translate(2 54)" d="M1 4c-0.26522 0-0.51957-0.10536-0.70711-0.29289-0.18754-0.18754-0.29289-0.44189-0.29289-0.70711l0-2c0-0.26522 0.10536-0.51957 0.29289-0.70711 0.18754-0.18754 0.44189-0.29289 0.70711-0.29289 0.26522 0 0.51957 0.10536 0.70711 0.29289 0.18754 0.18754 0.29289 0.44189 0.29289 0.70711l0 2c0 0.26522-0.10536 0.51957-0.29289 0.70711-0.18754 0.18754-0.44189 0.29289-0.70711 0.29289z" fill-rule="nonzero" fill="#dbeafb"/><path transform="translate(2 42)" d="M1 4c-0.26522 0-0.51957-0.10536-0.70711-0.29289-0.18754-0.18754-0.29289-0.44189-0.29289-0.70711l0-2c0-0.26522 0.10536-0.51957 0.29289-0.70711 0.18754-0.18754 0.44189-0.29289 0.70711-0.29289 0.26522 0 0.51957 0.10536 0.70711 0.29289 0.18754 0.18754 0.29289 0.44189 0.29289 0.70711l0 2c0 0.26522-0.10536 0.51957-0.29289 0.70711-0.18754 0.18754-0.44189 0.29289-0.70711 0.29289z" fill-rule="nonzero" fill="#dbeafb"/><path transform="translate(2 30)" d="M1 4c-0.26522 0-0.51957-0.10536-0.70711-0.29289-0.18754-0.18754-0.29289-0.44189-0.29289-0.70711l0-2c0-0.26522 0.10536-0.51957 0.29289-0.70711 0.18754-0.18754 0.44189-0.29289 0.70711-0.29289 0.26522 0 0.51957 0.10536 0.70711 0.29289 0.18754 0.18754 0.29289 0.44189 0.29289 0.70711l0 2c0 0.26522-0.10536 0.51957-0.29289 0.70711-0.18754 0.18754-0.44189 0.29289-0.70711 0.29289z" fill-rule="nonzero" fill="#dbeafb"/><path transform="translate(2 18)" d="M1 4c-0.26522 0-0.51957-0.10536-0.70711-0.29289-0.18754-0.18754-0.29289-0.44189-0.29289-0.70711l0-2c0-0.26522 0.10536-0.51957 0.29289-0.70711 0.18754-0.18754 0.44189-0.29289 0.70711-0.29289 0.26522 0 0.51957 0.10536 0.70711 0.29289 0.18754 0.18754 0.29289 0.44189 0.29289 0.70711l0 2c0 0.26522-0.10536 0.51957-0.29289 0.70711-0.18754 0.18754-0.44189 0.29289-0.70711 0.29289z" fill-rule="nonzero" fill="#dbeafb"/><path transform="translate(14 6)" d="M3 2l-2 0c-0.26522 0-0.51957-0.10536-0.70711-0.29289-0.18754-0.18754-0.29289-0.44189-0.29289-0.70711 0-0.26522 0.10536-0.51957 0.29289-0.70711 0.18754-0.18754 0.44189-0.29289 0.70711-0.29289l2 0c0.26522 0 0.51957 0.10536 0.70711 0.29289 0.18754 0.18754 0.29289 0.44189 0.29289 0.70711 0 0.26522-0.10536 0.51957-0.29289 0.70711-0.18754 0.18754-0.44189 0.29289-0.70711 0.29289z" fill-rule="nonzero" fill="#dbeafb"/><path transform="translate(26 6)" d="M3 2l-2 0c-0.26522 0-0.51957-0.10536-0.70711-0.29289-0.18754-0.18754-0.29289-0.44189-0.29289-0.70711 0-0.26522 0.10536-0.51957 0.29289-0.70711 0.18754-0.18754 0.44189-0.29289 0.70711-0.29289l2 0c0.26522 0 0.51957 0.10536 0.70711 0.29289 0.18754 0.18754 0.29289 0.44189 0.29289 0.70711 0 0.26522-0.10536 0.51957-0.29289 0.70711-0.18754 0.18754-0.44189 0.29289-0.70711 0.29289z" fill-rule="nonzero" fill="#dbeafb"/><path transform="translate(38 6)" d="M3 2l-2 0c-0.26522 0-0.51957-0.10536-0.70711-0.29289-0.18754-0.18754-0.29289-0.44189-0.29289-0.70711 0-0.26522 0.10536-0.51957 0.29289-0.70711 0.18754-0.18754 0.44189-0.29289 0.70711-0.29289l2 0c0.26522 0 0.51957 0.10536 0.70711 0.29289 0.18754 0.18754 0.29289 0.44189 0.29289 0.70711 0 0.26522-0.10536 0.51957-0.29289 0.70711-0.18754 0.18754-0.44189 0.29289-0.70711 0.29289z" fill-rule="nonzero" fill="#dbeafb"/><path transform="translate(50 6)" d="M3 2l-2 0c-0.26522 0-0.51957-0.10536-0.70711-0.29289-0.18754-0.18754-0.29289-0.44189-0.29289-0.70711 0-0.26522 0.10536-0.51957 0.29289-0.70711 0.18754-0.18754 0.44189-0.29289 0.70711-0.29289l2 0c0.26522 0 0.51957 0.10536 0.70711 0.29289 0.18754 0.18754 0.29289 0.44189 0.29289 0.70711 0 0.26522-0.10536 0.51957-0.29289 0.70711-0.18754 0.18754-0.44189 0.29289-0.70711 0.29289z" fill-rule="nonzero" fill="#dbeafb"/><path transform="translate(62 6)" d="M3 2l-2 0c-0.26522 0-0.51957-0.10536-0.70711-0.29289-0.18754-0.18754-0.29289-0.44189-0.29289-0.70711 0-0.26522 0.10536-0.51957 0.29289-0.70711 0.18754-0.18754 0.44189-0.29289 0.70711-0.29289l2 0c0.26522 0 0.51957 0.10536 0.70711 0.29289 0.18754 0.18754 0.29289 0.44189 0.29289 0.70711 0 0.26522-0.10536 0.51957-0.29289 0.70711-0.18754 0.18754-0.44189 0.29289-0.70711 0.29289z" fill-rule="nonzero" fill="#dbeafb"/><path transform="translate(66 62)" d="M14 7c0 3.86599-3.13401 7-7 7-3.86599 0-7-3.13401-7-7 0-3.86599 3.13401-7 7-7 3.86599 0 7 3.13401 7 7z" fill-rule="nonzero" fill="#006fff"/><path transform="translate(73.8209 69.7409)" d="M4.46954 3.12954l1.33-1.33c0.18625-0.18736 0.29079-0.44081 0.2908-0.705 0-0.26419-0.10454-0.51764-0.2908-0.705-0.09296-0.09373-0.20357-0.16812-0.32542-0.21889-0.12186-0.05077-0.25256-0.0769-0.38458-0.0769-0.13201 0-0.26272 0.02614-0.38457 0.0769-0.12186 0.05077-0.23246 0.12516-0.32543 0.21889l-1.29 1.29-1.33-1.32999c-0.08965-0.10468-0.19996-0.1897-0.32403-0.24973-0.12406-0.06002-0.2592-0.09376-0.39691-0.09907-0.13772-0.00532-0.27505 0.01789-0.40338 0.06816-0.12833 0.05027-0.24487 0.12653-0.34233 0.22398-0.09745 0.09745-0.17371 0.214-0.22398 0.34233-0.05027 0.12833-0.07348 0.26566-0.06816 0.40338 0.00532 0.13772 0.03905 0.27285 0.09907 0.39691 0.06002 0.12406 0.14504 0.23438 0.24972 0.32404l1.29 1.36999-1.33 1.33001c-0.09373 0.09296-0.16812 0.20356-0.21889 0.32542-0.05077 0.12186-0.07691 0.25257-0.0769 0.38458 0 0.13201 0.02614 0.26272 0.0769 0.38457 0.05077 0.12186 0.12516 0.23246 0.21889 0.32542 0.18736 0.18625 0.44081 0.29079 0.705 0.2908 0.26419 0 0.51764-0.10454 0.705-0.2908l1.37-1.36999 1.33001 1.32999c0.1883 0.1883 0.4437 0.29409 0.70999 0.2941 0.2663 0 0.5217-0.10579 0.71-0.2941 0.1883-0.1883 0.29409-0.4437 0.29409-0.71 0-0.2663-0.10579-0.5217-0.29409-0.70999l-1.37-1.29001z" fill-rule="nonzero" fill="#f0f7fc"/></svg>