<svg xmlns="http://www.w3.org/2000/svg" viewBox="0 0 24 24" width="24" height="24"><ellipse cx="16" cy="16" rx="16" ry="16" fill="#d9d9d9"/><path transform="translate(12 31)" d="M0 0l5.5 5.5 5.5-5.5-11 0z" fill-rule="nonzero" fill="#d9d9d9"/><path transform="translate(6.83333 6.83333)" d="M22.0375 7.925c-0.1-0.4-0.4-0.6-0.8-0.7l-6.4-0.9-2.9-5.8c-0.3-0.7-1.5-0.7-1.8 0l-2.9 5.8-6.4 0.9c-0.4 0-0.7 0.3-0.8 0.7-0.1 0.4 0 0.8 0.3 1l4.6 4.5-1.1 6.4c0 0.4 0 0.8 0.4 1 0.3 0.2 0.7 0.3 1.1 0l5.7-3 5.7 3c0.1 0 0.3 0.1 0.5 0.1 0.2 0 0.4 0 0.6-0.2 0.3-0.2 0.5-0.6 0.4-1l-1.1-6.4 4.6-4.5c0.3-0.3 0.4-0.7 0.3-1l0 0.1z" fill-rule="nonzero" fill="#ffffff"/></svg>