<svg xmlns="http://www.w3.org/2000/svg" viewBox="0 0 24 24" width="24" height="24"><path transform="translate(3.25 1.24998)" d="M0 7.75002c0-0.41421 0.33579-0.75 0.75-0.75l13 0c0.41421 0 0.75 0.33579 0.75 0.75l0 9c0 2.62221-2.12779 4.75-4.75 4.75l-5 0c-2.62221 0-4.75-2.12779-4.75-4.75l0-9z m1.5 0.75l0 8.25c0 1.79379 1.45621 3.25 3.25 3.25l5 0c1.79379 0 3.25-1.45621 3.25-3.25l0-8.25-11.5 0z m3.8278-8.22818c0.26409 0.31911 0.21949 0.79188-0.09962 1.05598-0.17489 0.14474-0.22843 0.3007-0.22843 0.4222 0 0.1215 0.05354 0.27747 0.22843 0.4222 0.49211 0.40726 0.77207 0.9753 0.77207 1.5778 0 0.6025-0.27996 1.17053-0.77207 1.5778-0.31911 0.26409-0.79188 0.21949-1.05598-0.09962-0.26409-0.31911-0.21949-0.79188 0.09962-1.05598 0.17489-0.14474 0.22843-0.3007 0.22843-0.4222 0-0.1215-0.05354-0.27747-0.22843-0.4222-0.49211-0.40726-0.77207-0.9753-0.77207-1.5778 0-0.6025 0.27996-1.17053 0.77207-1.5778 0.31911-0.26409 0.79188-0.21949 1.05598 0.09962z m4 0c0.26409 0.31911 0.21949 0.79188-0.09962 1.05598-0.17489 0.14474-0.22843 0.3007-0.22843 0.4222 0 0.1215 0.05354 0.27747 0.22843 0.4222 0.49211 0.40726 0.77207 0.9753 0.77207 1.5778 0 0.6025-0.27996 1.17053-0.77207 1.5778-0.31911 0.26409-0.79188 0.21949-1.05598-0.09962-0.26409-0.31911-0.21949-0.79188 0.09962-1.05598 0.17489-0.14474 0.22843-0.3007 0.22843-0.4222 0-0.1215-0.05354-0.27747-0.22843-0.4222-0.49211-0.40726-0.77207-0.9753-0.77207-1.5778 0-0.6025 0.27996-1.17053 0.77207-1.5778 0.31911-0.26409 0.79188-0.21949 1.05598 0.09962z m3.6722 8.47818c0-0.41421 0.33579-0.75 0.75-0.75l1.5 0c2.34721 0 4.25 1.90279 4.25 4.25 0 2.34721-1.90279 4.25-4.25 4.25l-1.5 0c-0.41421 0-0.75-0.33579-0.75-0.75 0-0.41421 0.33579-0.75 0.75-0.75l1.5 0c1.51879 0 2.75-1.23121 2.75-2.75 0-1.51879-1.23121-2.75-2.75-2.75l-1.5 0c-0.41421 0-0.75-0.33579-0.75-0.75z" fill-rule="evenodd" fill="currentColor"/></svg>