<svg xmlns="http://www.w3.org/2000/svg" viewBox="0 0 24 24" width="24" height="24"><path transform="translate(1.25 1.25)" d="M12 9.75c0-0.69079-0.55921-1.25-1.25-1.25l-8 0c-0.69079 0-1.25 0.55921-1.25 1.25l0 9.5 2.7998-2.09961 0.10254-0.06445c0.10682-0.05592 0.2259-0.08594 0.34766-0.08594l7.25 0 0-7.25z m1.5 8c0 0.41421-0.33579 0.75-0.75 0.75l-7.75 0-3.7998 2.84961c-0.22715 0.17036-0.53115 0.19811-0.78516 0.07129-0.25409-0.12704-0.41504-0.38682-0.41504-0.6709l0-11c0-1.51921 1.23079-2.75 2.75-2.75l8 0c1.51921 0 2.75 1.23079 2.75 2.75l0 8z m-3.75-6.75l0 1.5-6 0 0-1.5 6 0z m7-5.15l0 1.5-4 0 0-1.5 4 0z m3.25-3.1c0-0.69079-0.55921-1.25-1.25-1.25l-8 0c-0.69079 0-1.25 0.55921-1.25 1.25l0 5.15039-1.5 0 0-5.15039c0-1.51921 1.23079-2.75 2.75-2.75l8 0c1.51921 0 2.75 1.23079 2.75 2.75l0 12c0 0.28408-0.16095 0.54386-0.41504 0.6709-0.25401 0.12682-0.55801 0.09907-0.78516-0.07129l-3.7998-2.84961-3.75 0 0-1.5 4 0c0.16228 0 0.32037 0.05302 0.4502 0.15039l2.7998 2.09961 0-10.5z m-4 3c0-0.69079-0.55921-1.25-1.25-1.25-0.69079 0-1.25 0.55921-1.25 1.25l0 4-1.5 0 0-4c0-1.51921 1.23079-2.75 2.75-2.75 1.51921 0 2.75 1.23079 2.75 2.75l0 4-1.5 0 0-4z m-10 6.48242l0-2.48242 1.5 0 0 2.48242c-0.00026 1.92273-1.8074 3.26758-3.75 3.26758l0-1.5c1.37104 0 2.24971-0.90865 2.25-1.76758z m1.5 0c0 0.85905 0.87874 1.76716 2.25 1.76716l0 1.5c-1.94274 0-3.75-1.3442-3.75-3.26716l1.5 0z"  fill="currentColor"/></svg>